<svg xmlns="http://www.w3.org/2000/svg" version="1.1" viewBox="-5.0 -10.0 110.0 135.0">
 <path d="m17.508 81.395c-1.1055 0-2-0.89453-2-2s0.89453-2 2-2h11.434c-1.1797-1.6094-1.875-3.5898-1.875-5.7266 0-2.1406 0.69922-4.125 1.8789-5.7344h-5.8008c-1.1055 0-2-0.89453-2-2 0-1.1055 0.89453-2 2-2h3.3008c1.0898-1.7266 1.6367-3.6992 1.6484-5.7305-0.011719-2.0312-0.5625-4.0039-1.6484-5.7305h-3.3008c-1.1055 0-2-0.89453-2-2 0-1.1055 0.89453-2 2-2h16.688l-0.32031-0.3125c-2.6484-2.6562-4.293-6.3125-4.293-10.328v-13.77c0-1.1055 0.89453-2 2-2h25.285c1.1055 0 2 0.89453 2 2v1.2656c2.2578 0.011719 4.3086 0.9375 5.8086 2.4336 1.5039 1.5078 2.4297 3.5703 2.4297 5.8398v1.0156c0 1.375-0.32031 2.6719-0.92578 3.8359-0.60547 1.1641-1.4922 2.168-2.6211 2.9531l-7.8203 5.4453c-0.36328 0.46094-0.75781 0.90234-1.1719 1.3203l-0.30469 0.30469h8.9492c2.6758 0 5.1133 1.0938 6.875 2.8555l0.11719 0.12891c1.6953 1.7539 2.7383 4.1328 2.7383 6.7461 0 2.1406-0.69922 4.1211-1.875 5.7305h5.8008c1.1055 0 2 0.89453 2 2s-0.89453 2-2 2h-3.3008c-1.0977 1.7422-1.6484 3.7344-1.6484 5.7305 0 1.9961 0.55078 3.9883 1.6484 5.7305h3.3008c1.1055 0 2 0.89453 2 2 0 1.1055-0.89453 2-2 2h-11.434c1.1797 1.6094 1.8789 3.5898 1.8789 5.7305 0 2.6797-1.0938 5.1133-2.8555 6.875-1.7617 1.7617-4.1953 2.8555-6.875 2.8555h-45.695c-1.1055 0-2-0.89453-2-2s0.89453-2 2-2h3.3008c1.0898-1.7266 1.6367-3.6992 1.6484-5.7305-0.011718-2.0312-0.5625-4.0039-1.6484-5.7305h-3.3008zm45.695 0h-37.91c0.50781 1.2031 0.84766 2.4609 1.0234 3.7305h21.332c1.1055 0 2 0.89453 2 2s-0.89453 2-2 2h-21.332c-0.17578 1.2734-0.51562 2.5273-1.0234 3.7305h37.91c1.5703 0 3.0078-0.64453 4.043-1.6836 1.0391-1.0391 1.6836-2.4727 1.6836-4.043 0-1.5742-0.64453-3.0078-1.6836-4.0469-1.0312-1.0391-2.4648-1.6875-4.043-1.6875zm-26.414-19.461h32.043c1.5703 0 3.0078-0.64453 4.043-1.6836 1.0391-1.0391 1.6836-2.4727 1.6836-4.043 0-1.5312-0.60547-2.9297-1.5898-3.9609l-0.09375-0.085938c-1.0391-1.0391-2.4727-1.6836-4.043-1.6836h-37.91c0.50781 1.2031 0.84766 2.4609 1.0234 3.7305h21.332c1.1055 0 2 0.89453 2 2s-0.89453 2-2 2h-21.332c-0.17578 1.2734-0.51562 2.5273-1.0234 3.7305h5.8672zm27.703-34.609v8.5039c0 0.70312-0.050782 1.3906-0.14844 2.0703l2.5547-1.7773c0.60547-0.42188 1.0703-0.9375 1.3711-1.5156 0.30078-0.57422 0.46094-1.25 0.46094-1.9961v-1.0156c0-1.1836-0.47656-2.25-1.2461-3.0195s-1.8242-1.2461-2.9922-1.2578zm-20.758-12.234c0.23828 1.0742-0.43359 2.1406-1.5078 2.3828-1.0742 0.23828-2.1406-0.43359-2.3828-1.5078-1.0742-4.75 0.16406-5.9219 1.6016-7.2852 0.59375-0.5625 1.2617-1.1953 1.2617-3.5391 0-1.1055 0.89453-2 2-2s2 0.89453 2 2c0 4.0352-1.3398 5.3047-2.5273 6.4297-0.55078 0.51953-1.0234 0.96875-0.44531 3.5195zm13.531 0c0.23828 1.0742-0.43359 2.1406-1.5078 2.3828-1.0742 0.23828-2.1406-0.43359-2.3828-1.5078-1.0742-4.7461 0.16797-5.9219 1.6055-7.2852 0.59375-0.5625 1.2617-1.1953 1.2617-3.5391 0-1.1055 0.89453-2 2-2 1.1055 0 2 0.89453 2 2 0 4.0352-1.3398 5.3047-2.5273 6.4297-0.55078 0.51953-1.0234 0.96875-0.44531 3.5195zm-6.7656 0c0.23828 1.0742-0.43359 2.1406-1.5078 2.3828-1.0742 0.23828-2.1406-0.43359-2.3828-1.5078-1.0781-4.7539 0.16016-5.9297 1.6055-7.2891l0.10938-0.09375c0.5625-0.54297 1.1562-1.2344 1.1562-3.4375 0-1.1055 0.89453-2 2-2s2 0.89453 2 2c0 3.9102-1.2539 5.2188-2.4141 6.3203l-0.11328 0.11719c-0.55078 0.51953-1.0234 0.96875-0.44531 3.5117z"/>
<text x="0.0" y="117.5" font-size="5.0" font-weight="bold" font-family="Arbeit Regular, Helvetica, Arial-Unicode, Arial, Sans-serif" fill="#000000">Created by cakslankers</text><text x="0.0" y="122.5" font-size="5.0" font-weight="bold" font-family="Arbeit Regular, Helvetica, Arial-Unicode, Arial, Sans-serif" fill="#000000">from Noun Project</text></svg>
